<?xml version="1.0" encoding="UTF-8"?>
<svg xmlns="http://www.w3.org/2000/svg" style="display: none;">
  <symbol id="check-circle" viewBox="0 0 20 20" fill="currentColor">

  <path fillRule="evenodd" d="M10 18a8 8 0 100-16 8 8 0 000 16zm3.707-9.293a1 1 0 00-1.414-1.414L9 10.586 7.707 9.293a1 1 0 00-1.414 1.414l2 2a1 1 0 001.414 0l4-4z" clipRule="evenodd" />

  </symbol>
  <symbol id="chevron-down" viewBox="0 0 20 20" fill="currentColor">

  <path fillRule="evenodd" d="M5.293 7.293a1 1 0 011.414 0L10 10.586l3.293-3.293a1 1 0 111.414 1.414l-4 4a1 1 0 01-1.414 0l-4-4a1 1 0 010-1.414z" clipRule="evenodd" />

  </symbol>
  <symbol id="chevron-left" viewBox="0 0 20 20" fill="currentColor">

  <path fillRule="evenodd" d="M12.707 5.293a1 1 0 010 1.414L9.414 10l3.293 3.293a1 1 0 01-1.414 1.414l-4-4a1 1 0 010-1.414l4-4a1 1 0 011.414 0z" clipRule="evenodd" />

  </symbol>
  <symbol id="chevron-right" viewBox="0 0 20 20" fill="currentColor">

  <path fillRule="evenodd" d="M7.293 14.707a1 1 0 010-1.414L10.586 10 7.293 6.707a1 1 0 011.414-1.414l4 4a1 1 0 010 1.414l-4 4a1 1 0 01-1.414 0z" clipRule="evenodd" />

  </symbol>
  <symbol id="chevron-up" viewBox="0 0 20 20" fill="currentColor">

  <path fillRule="evenodd" d="M14.707 12.707a1 1 0 01-1.414 0L10 9.414l-3.293 3.293a1 1 0 01-1.414-1.414l4-4a1 1 0 011.414 0l4 4a1 1 0 010 1.414z" clipRule="evenodd" />

  </symbol>
  <symbol id="document" viewBox="0 0 24 24" stroke="currentColor">

  <path strokeLinecap="round" strokeLinejoin="round" strokeWidth={1} d="M9 12h6m-6 4h6m2 5H7a2 2 0 01-2-2V5a2 2 0 012-2h5.586a1 1 0 01.707.293l5.414 5.414a1 1 0 01.293.707V19a2 2 0 01-2 2z" />

  </symbol>
  <symbol id="exclamation-circle" viewBox="0 0 20 20" fill="currentColor">

  <path fillRule="evenodd" d="M18 10a8 8 0 11-16 0 8 8 0 0116 0zm-7 4a1 1 0 11-2 0 1 1 0 012 0zm-1-9a1 1 0 00-1 1v4a1 1 0 102 0V6a1 1 0 00-1-1z" clipRule="evenodd" />

  </symbol>
  <symbol id="x" viewBox="0 0 24 24" stroke="currentColor">

  <path strokeLinecap="round" strokeLinejoin="round" strokeWidth={2} d="M6 18L18 6M6 6l12 12" />

  </symbol>
</svg>